<?xml version="1.0" standalone="no"?>
<!DOCTYPE svg PUBLIC "-//W3C//DTD SVG 20010904//EN"
 "http://www.w3.org/TR/2001/REC-SVG-20010904/DTD/svg10.dtd">
<svg version="1.0" xmlns="http://www.w3.org/2000/svg"
 width="700.000000pt" height="700.000000pt" viewBox="0 0 700.000000 700.000000"
 preserveAspectRatio="xMidYMid meet">
<metadata>
Created by potrace 1.14, written by Peter Selinger 2001-2017
</metadata>
<g transform="translate(0.000000,700.000000) scale(0.100000,-0.100000)"
fill="#000000" stroke="none">
<path d="M2968 6205 c-2 -2 -43 -5 -93 -9 -400 -27 -804 -255 -1221 -687 -62
-64 -108 -117 -173 -194 -302 -364 -592 -955 -710 -1446 -11 -46 -22 -95 -25
-109 -35 -200 -40 -250 -41 -445 0 -194 7 -275 36 -395 86 -355 310 -633 632
-785 151 -71 274 -94 472 -89 168 4 241 22 402 100 255 123 486 332 683 617
76 110 100 129 100 79 0 -57 68 -225 113 -282 31 -39 71 -60 113 -60 24 0 44
3 45 8 4 44 8 103 13 182 6 96 8 111 27 210 17 93 20 104 30 145 68 266 203
587 303 719 60 80 132 129 186 129 47 0 60 -13 60 -59 0 -25 -39 -256 -54
-319 -14 -58 -68 -332 -81 -410 -24 -139 -30 -218 -29 -380 0 -124 4 -164 23
-232 54 -194 203 -346 363 -371 46 -7 65 -5 107 10 92 35 130 101 226 393 26
77 50 143 54 147 4 4 27 -20 51 -53 97 -134 192 -179 380 -184 95 -2 166 12
235 45 104 51 248 171 333 279 23 28 43 48 45 44 3 -5 1 -35 -3 -68 -5 -33
-11 -80 -14 -105 -3 -25 -8 -67 -12 -95 -4 -27 -8 -61 -9 -75 -1 -14 -5 -47
-9 -75 -6 -50 -10 -96 -21 -230 -13 -161 -19 -171 -121 -181 -112 -12 -95 -44
24 -44 l72 0 0 -47 c3 -229 44 -497 101 -655 62 -172 199 -303 329 -315 39 -4
53 0 95 29 82 54 147 169 170 298 11 62 14 293 4 360 -11 80 -33 140 -74 205
-57 89 -138 161 -218 190 -26 10 -50 21 -52 25 -3 4 55 39 127 76 436 227 754
528 927 877 24 48 45 105 48 127 5 35 3 40 -14 40 -28 0 -54 -32 -118 -150
-147 -267 -402 -530 -679 -699 -64 -40 -260 -141 -271 -141 -7 0 0 51 15 120
73 324 72 324 194 478 107 136 163 224 230 359 51 103 120 276 147 373 7 25
14 50 15 55 41 138 84 324 108 475 24 149 25 374 2 439 -31 85 -124 143 -232
144 -91 0 -132 -30 -226 -170 -114 -170 -248 -487 -340 -803 -36 -127 -86
-314 -93 -354 -27 -140 -78 -260 -157 -364 -150 -199 -329 -338 -446 -346
-101 -7 -217 66 -267 168 -29 60 -32 71 -40 180 -6 78 -6 78 17 72 123 -38
260 14 415 158 131 122 196 248 209 403 12 138 -13 203 -107 276 -60 47 -194
110 -232 109 -39 -1 -101 -40 -173 -109 -168 -161 -279 -334 -345 -536 -27
-81 -39 -137 -64 -292 -4 -22 -9 -53 -12 -70 -11 -69 -66 -266 -104 -374 -85
-247 -150 -328 -213 -262 -49 52 -61 112 -61 316 0 170 6 231 41 430 14 77 34
192 45 255 26 150 34 233 34 355 0 91 -3 104 -27 147 -15 25 -49 65 -75 88
-213 187 -409 137 -569 -145 -64 -113 -95 -172 -123 -238 -58 -133 -64 -114
-27 91 10 53 44 135 68 164 13 14 32 37 42 50 33 39 239 273 246 278 24 18
194 243 254 334 95 144 148 246 261 501 20 44 86 242 91 273 3 15 9 46 14 69
41 184 26 424 -32 509 -43 63 -113 93 -214 94 -70 0 -140 -23 -210 -69 -116
-76 -194 -165 -322 -366 -31 -50 -151 -300 -185 -385 -90 -233 -220 -669 -251
-845 -3 -16 -10 -55 -16 -85 -18 -88 -18 -89 -40 -215 -11 -66 -23 -138 -25
-160 -3 -22 -10 -74 -15 -115 -11 -88 -23 -196 -35 -340 -13 -146 -33 -196
-133 -340 -219 -313 -522 -561 -776 -637 -54 -16 -308 -22 -386 -8 -152 26
-385 197 -525 385 -88 120 -171 312 -196 456 -20 115 -16 507 6 614 3 14 8 40
11 59 9 54 11 62 38 156 139 495 416 1013 745 1397 90 105 291 300 381 370
239 185 443 275 646 285 104 5 115 4 166 -19 106 -49 170 -128 186 -230 14
-90 7 -266 -13 -313 -88 -210 -222 -370 -370 -440 -84 -40 -142 -53 -219 -49
-79 4 -103 22 -112 81 -3 27 -8 55 -9 63 -2 8 -6 40 -10 70 -25 204 -61 308
-115 334 -14 7 -31 11 -37 10 -7 -1 -17 -2 -23 -3 -5 0 -21 -13 -35 -28 -64
-69 -88 -229 -54 -362 23 -91 54 -145 124 -216 54 -55 72 -95 90 -196 8 -44
13 -42 -205 -93 -362 -86 -627 -205 -738 -331 -43 -49 -61 -98 -33 -88 9 4 21
9 26 13 6 4 84 39 175 78 283 120 578 203 843 237 49 6 112 17 115 20 1 1 -12
60 -29 129 -18 74 -28 131 -23 136 5 5 38 11 73 14 167 15 307 88 451 235 199
203 328 509 315 744 -10 176 -93 298 -256 371 -44 20 -141 39 -151 31z m1318
-501 c27 -41 23 -228 -8 -364 -5 -25 -12 -56 -14 -70 -50 -276 -236 -662 -482
-1001 -37 -52 -75 -103 -84 -114 -9 -11 -67 -82 -128 -158 -62 -75 -116 -140
-121 -143 -12 -7 -11 10 7 91 19 86 22 102 30 140 3 17 23 102 44 191 22 88
41 171 43 185 16 82 102 415 130 501 67 201 143 368 232 504 136 209 298 319
351 238z m2206 -1331 c10 -171 -46 -501 -133 -784 -91 -298 -261 -653 -330
-689 -20 -11 -21 -10 -15 11 3 13 13 56 22 94 47 218 200 745 320 1104 86 256
131 344 136 264z m-1267 -727 c-26 -189 -171 -422 -296 -475 -28 -12 -65 -23
-83 -24 -29 -2 -31 0 -30 33 1 43 77 198 140 287 53 74 143 167 203 211 55 40
75 31 66 -32z m682 -1749 c72 -38 164 -180 181 -279 28 -171 -23 -450 -98
-540 -24 -27 -32 -31 -47 -22 -23 14 -76 154 -97 257 -23 112 -40 546 -23 590
8 20 37 18 84 -6z"/>
<path d="M1527 6044 c-1 -1 -36 -4 -77 -7 -148 -12 -375 -83 -502 -158 -217
-128 -339 -277 -413 -507 -17 -55 -30 -67 -80 -75 -109 -17 -201 -61 -260
-123 -47 -48 -108 -159 -119 -214 -4 -19 -11 -48 -14 -65 -4 -16 -7 -84 -7
-150 1 -138 17 -212 71 -323 43 -88 89 -136 162 -170 47 -21 64 -24 136 -20
95 5 158 29 243 93 68 51 67 51 79 -66 3 -41 9 -80 13 -86 4 -8 21 17 42 60
l36 72 -13 75 c-7 41 -16 89 -19 105 -2 17 -8 51 -11 77 -3 26 -11 71 -18 100
l-12 53 -13 -40 c-72 -218 -256 -365 -389 -309 -129 54 -191 189 -179 392 12
211 81 341 212 404 93 44 108 37 119 -52 15 -122 97 -323 121 -298 3 2 7 71 9
154 7 200 13 245 47 338 154 422 556 655 1167 675 85 3 -14 45 -133 57 -64 6
-193 12 -198 8z"/>
<path d="M5017 1954 c-1 -1 -60 -5 -132 -8 -71 -4 -150 -9 -175 -11 -25 -2
-90 -7 -145 -10 -55 -4 -116 -8 -135 -10 -19 -2 -84 -6 -145 -10 -60 -4 -117
-8 -125 -10 -8 -1 -60 -6 -115 -10 -55 -3 -116 -8 -135 -10 -19 -3 -69 -7
-110 -10 -41 -3 -91 -8 -110 -10 -19 -2 -69 -7 -110 -11 -41 -3 -86 -8 -100
-9 -14 -1 -59 -6 -100 -9 -41 -4 -86 -9 -100 -11 -14 -2 -56 -6 -95 -10 -38
-3 -81 -8 -95 -10 -14 -2 -51 -7 -83 -10 -86 -8 -149 -15 -177 -20 -14 -2 -54
-7 -90 -11 -36 -3 -72 -7 -80 -9 -8 -2 -44 -6 -80 -10 -36 -4 -72 -8 -80 -10
-8 -2 -44 -6 -80 -10 -36 -4 -72 -8 -80 -10 -9 -2 -43 -6 -75 -10 -33 -4 -67
-9 -75 -10 -8 -2 -40 -6 -70 -10 -30 -4 -64 -9 -75 -11 -11 -2 -40 -7 -65 -10
-25 -3 -58 -8 -73 -10 -16 -3 -100 -16 -187 -29 -87 -13 -171 -27 -187 -29
-15 -3 -45 -8 -67 -11 -21 -4 -48 -9 -60 -11 -11 -2 -37 -7 -56 -10 -19 -3
-101 -19 -181 -34 -80 -16 -159 -32 -176 -35 -55 -9 -248 -57 -260 -64 -21
-11 45 -126 103 -181 104 -98 156 -95 649 35 180 48 567 141 730 176 49 11
133 29 185 40 115 25 83 18 385 78 138 28 288 57 335 65 47 9 148 27 225 41
187 33 185 33 225 39 39 6 265 41 320 50 19 4 82 13 140 21 58 9 116 18 130
20 20 3 196 26 390 50 38 4 102 11 190 20 30 3 69 8 85 10 17 2 62 6 100 10
101 10 245 32 252 39 14 13 -12 20 -82 21 -42 1 -76 1 -78 -1z"/>
</g>
</svg>
