<?xml version="1.0" encoding="UTF-8" standalone="no"?>
<!-- Created with Inkscape (http://www.inkscape.org/) -->

<svg
   version="1.1"
   id="svg41"
   width="400"
   height="400"
   viewBox="0 0 400 400"
   sodipodi:docname="logo"
   inkscape:version="1.2.1 (8a69933317, 2022-10-28, custom)"
   xmlns:inkscape="http://www.inkscape.org/namespaces/inkscape"
   xmlns:sodipodi="http://sodipodi.sourceforge.net/DTD/sodipodi-0.dtd"
   xmlns="http://www.w3.org/2000/svg"
   xmlns:svg="http://www.w3.org/2000/svg">
  <defs
     id="defs45" />
  <sodipodi:namedview
     id="namedview43"
     pagecolor="#ffffff"
     bordercolor="#000000"
     borderopacity="0.25"
     inkscape:showpageshadow="2"
     inkscape:pageopacity="0.0"
     inkscape:pagecheckerboard="0"
     inkscape:deskcolor="#d1d1d1"
     showgrid="false"
     inkscape:zoom="0.98333333"
     inkscape:cx="-12.711864"
     inkscape:cy="153.05085"
     inkscape:window-width="1920"
     inkscape:window-height="1016"
     inkscape:window-x="0"
     inkscape:window-y="0"
     inkscape:window-maximized="1"
     inkscape:current-layer="g47" />
  <g
     inkscape:groupmode="layer"
     inkscape:label="Image"
     id="g47"
     transform="translate(-897.18745,-127.34451)">
    <path
       style="fill:#000000"
       d="m 1229.9107,473.93665 c -4.188,-1.94407 -9.436,-7.2331 -11.8947,-11.9878 -4.1754,-8.07425 -7.5967,-26.07119 -7.5967,-39.96036 v -4.85225 l -4.6508,0.0628 c -2.8724,0.0388 -4.8162,-0.41515 -5.0834,-1.18716 -0.2835,-0.81943 0.6072,-1.25 2.5858,-1.25 1.66,0 4.1121,-0.4159 5.4491,-0.92423 2.2809,-0.86718 2.4753,-1.55028 3.15,-11.06665 0.3955,-5.57833 1.522,-15.84993 2.5035,-22.82577 0.9814,-6.97584 1.6079,-12.8812 1.3921,-13.12302 -0.2158,-0.24181 -1.127,0.65819 -2.0249,2 -3.5594,5.31893 -13.2012,13.74054 -18.8544,16.46832 -5.0087,2.41682 -7.2561,2.88662 -13.9937,2.92529 -10.093,0.0579 -16.2486,-2.73289 -21.4516,-9.72559 l -3.4783,-4.67476 -3.7931,11.70641 c -2.0863,6.43852 -4.9016,13.38132 -6.2563,15.42844 -6.2874,9.50088 -20.3404,6.09178 -29.006,-7.03653 -6.7592,-10.24018 -7.1319,-28.46057 -1.1485,-56.15191 4.598,-21.28007 6.0061,-29.65709 5.2959,-31.50777 -1.0656,-2.77681 -6.3357,-1.75776 -10.5365,2.03737 -10.0596,9.0883 -22.7932,43.5798 -23.9857,64.9704 l -0.6132,11 -2.7837,0.31967 c -2.0713,0.23786 -3.5291,-0.47826 -5.6962,-2.79811 -3.1259,-3.3463 -7.0201,-12.53199 -7.0201,-16.55907 0,-3.71442 -1.1334,-2.99115 -5.1841,3.30827 -13.0082,20.22963 -33.2387,36.17649 -51.8096,40.83929 -9.4946,2.38392 -24.28205,1.50924 -33.36727,-1.97369 -15.61634,-5.98672 -28.59992,-18.01889 -35.75653,-33.13636 -14.85823,-31.3862 -6.21266,-80.82705 22.60578,-129.27419 16.01127,-26.9168 40.95412,-51.33398 64.66692,-63.30418 10.1965,-5.14714 20.5548,-8.03044 30.8448,-8.58583 8.9836,-0.48488 9.7986,-0.35846 14.9938,2.32572 14.4547,7.46829 16.835,24.70074 6.3851,46.22612 -8.1828,16.85543 -22.98,28.94955 -36.6276,29.93673 -5.4721,0.39582 -5.8729,0.58829 -5.3138,2.55187 0.3327,1.16807 1.2244,4.68559 1.9817,7.81671 l 1.3768,5.69294 -2.648,0.51537 c -1.4564,0.28344 -6.248,1.02949 -10.648,1.65786 -11.379,1.62508 -29.4472,7.0307 -41.58904,12.44257 -5.72607,2.55223 -11.01902,4.89904 -11.7621,5.21514 -1.02473,0.43589 -0.95568,-0.18987 0.28588,-2.59078 4.13564,-7.99745 22.84036,-16.78609 46.90196,-22.03745 4.8601,-1.06071 9.006,-2.09801 9.2131,-2.30509 0.2071,-0.20708 -0.2642,-2.8053 -1.0472,-5.77381 -1.0256,-3.88781 -2.3088,-6.08988 -4.5881,-7.87369 -7.39,-5.78358 -10.2967,-20.58351 -5.8476,-29.77412 2.3124,-4.77686 4.7968,-6.08844 7.8826,-4.16137 2.8749,1.7954 4.7934,7.68431 6.0295,18.50774 0.5785,5.06454 1.2971,9.84758 1.5969,10.62898 0.7662,1.9966 6.9303,2.78118 12.3478,1.57166 9.9352,-2.21816 19.0038,-10.41582 25.1939,-22.77422 2.9708,-5.93109 3.3263,-7.53608 3.3528,-15.13468 0.037,-10.61325 -1.8958,-15.04546 -8.3441,-19.13487 -3.705,-2.34962 -5.6195,-2.86513 -10.6406,-2.86513 -34.3819,0 -81.75975,51.58728 -100.507,109.43694 -5.03805,15.54623 -6.40397,23.82769 -6.44295,39.06306 -0.0412,16.08998 0.98367,21.29285 6.57309,33.36988 5.09954,11.01855 16.80877,23.0857 27.39108,28.22835 6.66447,3.23871 7.52726,3.40175 18.00008,3.40145 9.4802,-2.8e-4 11.7599,-0.3366 16.5,-2.43433 15.8503,-7.01449 30.1825,-19.90784 42.0324,-37.81256 4.3874,-6.62922 4.851,-7.9083 5.4365,-15 2.927,-35.45376 8.6341,-63.98494 18.5533,-92.75279 12.8015,-37.12698 30.1648,-58.0916 46.5803,-56.24134 8.9015,1.00333 12.587,5.9376 13.2303,17.7132 0.7785,14.25047 -3.2277,29.10217 -13.3602,49.52814 -7.3375,14.79157 -14.323,24.50035 -30.8184,42.83284 -12.3184,13.69038 -11.8271,12.74784 -14.1621,27.16716 -0.7937,4.90168 0.5336,3.76638 2.923,-2.5 2.4155,-6.33517 9.2734,-17.88263 12.9677,-21.83532 7.7017,-8.24049 16.7108,-8.28948 25.991,-0.14133 6.1122,5.3666 6.9809,7.97287 6.3111,18.93589 -0.3207,5.24742 -2.0208,16.51576 -3.7781,25.04076 -5.9029,28.63626 -4.042,51.08202 4.0229,48.52231 4.4277,-1.40529 12.9584,-25.58884 15.559,-44.10775 1.6419,-11.69274 4.2071,-19.15152 9.9231,-28.85356 4.5965,-7.80177 14.3982,-18.39707 19.4016,-20.97246 3.1257,-1.60887 3.5693,-1.60778 7.8294,0.0191 6.2082,2.37095 11.9623,6.72791 13.9425,10.55725 2.3931,4.62768 1.4812,15.13486 -1.916,22.07854 -6.0645,12.39535 -23.1921,23.78946 -31.1896,20.74882 l -2.7152,-1.03233 0.4077,6.40345 c 0.3107,4.88013 1.0697,7.40378 3.1904,10.60841 3.5084,5.30155 10.1324,8.53311 15.4472,7.53605 7.5652,-1.41924 18.0452,-10.472 26.8407,-23.18524 2.7998,-4.04697 4.1794,-7.75865 6.3184,-17 8.1399,-35.16669 20.251,-64.20238 30.8964,-74.07262 4.9925,-4.62894 16.1987,-1.89458 19.6589,4.79688 3.3304,6.44017 1.3275,27.97246 -4.5999,49.45312 -6.133,22.22553 -12.9461,36.23369 -24.1578,49.66981 -6.7543,8.09424 -6.9652,8.66587 -11.2809,30.56381 l -0.6373,3.23362 2.8258,-1.25944 c 22.4134,-9.98931 42.6554,-28.47416 52.3964,-47.84793 3.6988,-7.35664 5.8938,-9.34475 7.4812,-6.7762 0.3684,0.59601 -0.9867,4.43533 -3.0113,8.53181 -9.96,20.15266 -29.0848,38.2627 -52.7904,49.98934 -4.2625,2.10856 -7.75,4.11384 -7.75,4.45618 0,0.34233 1.7652,1.15128 3.9226,1.79765 5.2118,1.5615 12.3755,9.55532 14.7159,16.42111 2.4219,7.10514 2.3812,23.03803 -0.08,31.13701 -2.1194,6.97517 -7.5522,13.32912 -12.0589,14.10335 -1.8155,0.31189 -4.5828,-0.21933 -7.0086,-1.34539 z m 10.8387,-10.0002 c 4.4107,-7.55214 6.2995,-23.79084 3.6843,-31.67453 -2.7326,-8.23782 -8.6082,-14.5 -13.6048,-14.5 -1.5392,0 -1.6415,1.44749 -1.1479,16.25 0.4296,12.88441 0.9989,17.69979 2.7488,23.25 3.7067,11.75645 4.8268,12.65507 8.3196,6.67453 z m 10.1973,-116.67453 c 9.0315,-18.6341 15.7935,-43.4974 17.1824,-63.17815 0.6788,-9.61908 -0.4273,-10.7512 -3.4897,-3.57185 -4.64,10.87776 -19.5215,60.18554 -22.2507,73.72433 -0.6624,3.28588 -1.4485,6.66088 -1.747,7.5 -0.3188,0.89638 0.595,0.4945 2.2155,-0.97433 1.5169,-1.375 5.1572,-7.45 8.0895,-13.5 z m -72.2453,-0.84713 c 6.6696,-2.79213 14.2337,-14.092 16.6591,-24.88656 1.4821,-6.59661 0.1473,-7.51763 -4.8474,-3.34465 -6.095,5.09219 -11.4701,11.912 -14.9431,18.95955 -4.3987,8.92569 -4.7472,10.61879 -2.186,10.61879 1.1548,0 3.5476,-0.60621 5.3174,-1.34713 z m -73.181,-52.7431 c 13.5107,-16.72541 23.5549,-33.30656 29.9304,-49.40977 6.1782,-15.60501 9.7212,-37.35648 6.9333,-42.56574 -2.5149,-4.69924 -9.828,-0.8588 -17.6014,9.24332 -8.2762,10.75543 -15.42,27.69785 -20.2802,48.09678 -4.8986,20.56007 -11.0799,47.63739 -11.0472,48.39307 0.042,0.96553 1.6919,-0.91617 12.0651,-13.75766 z M 949.41973,459.63847 c -1.37472,-0.54818 -3.55601,-1.98215 -4.84732,-3.18662 -2.40203,-2.24049 -6.60808,-9.56837 -5.89903,-10.27742 0.71259,-0.7126 21.97406,-5.24799 36.74584,-7.83845 50.66678,-8.88517 119.41078,-16.78761 183.00008,-21.03668 31.1548,-2.08178 34.9346,-2.19376 35.0159,-1.03738 0.079,1.13036 -3.7936,1.71841 -26.5159,4.0259 -54.1349,5.4975 -135.369,20.73787 -191.68833,35.96274 -16.97518,4.58893 -21.35696,5.16407 -25.81124,3.38791 z m -9.54096,-175.62655 c -0.39483,-3.4375 -0.88086,-6.25 -1.08006,-6.25 -0.1992,0 -2.40136,1.55654 -4.89369,3.45897 -7.29426,5.56784 -17.4216,6.11558 -23.75507,1.28481 -7.33255,-5.5928 -11.93052,-21.61265 -9.71305,-33.84129 2.56431,-14.1413 9.76845,-22.02463 21.70466,-23.75091 4.46615,-0.64592 4.52066,-0.70138 6.27954,-6.38963 5.7406,-18.56509 23.61845,-31.81559 48.29433,-35.79423 8.8023,-1.41924 21.72812,-0.78265 26.86787,1.32323 3.2266,1.322 3.0081,1.38749 -6.66405,1.99738 -32.28359,2.03569 -54.78377,17.45728 -61.58705,42.21167 -0.75578,2.75 -1.38289,9.6177 -1.39357,15.26156 -0.0168,8.85905 -0.20565,10.0208 -1.38203,8.5 -2.71342,-3.50786 -5.3092,-10.52618 -5.85728,-15.83663 -0.59743,-5.78853 -1.13918,-6.18463 -5.965,-4.36131 -7.9489,3.0033 -12.5025,11.0628 -13.11805,23.21789 -0.53412,10.54714 1.1821,16.08818 6.40266,20.67189 8.02721,7.04799 19.93389,0.68769 25.33139,-13.5315 l 1.67262,-4.40635 1.98875,11.95246 1.98875,11.95245 -2.20189,4.28977 -2.20189,4.28977 z"
       id="path209"
       sodipodi:nodetypes="csscssssssssssscssssssscssssssssssssssscssssssssssssssssssssssssssssssssssssssssssssscsssssssssscsssssssscsccssssssssssssssssssssssssssssssscssssssssssssssssssssscccccs" />
  </g>
</svg>
